{
  "accessors": [
    {
      "bufferView": 2,
      "componentType": 5126,
      "count": 9566,
      "max": [
        15.090480804443359,
        20.548610687255859,
        26.280059814453125
      ],
      "min": [
        -15.09055233001709,
        -11.574853897094727,
        -0.12162793427705765
      ],
      "type": "VEC3"
    },
    {
      "bufferView": 2,
      "byteOffset": 114792,
      "componentType": 5126,
      "count": 9566,
      "max": [
        0.99999874830245972,
        0.99911832809448242,
        0.99987620115280151
      ],
      "min": [
        -0.9999961256980896,
        -0.99993520975112915,
        -1
      ],
      "type": "VEC3"
    },
    {
      "bufferView": 3,
      "componentType": 5126,
      "count": 9566,
      "max": [
        1,
        0.99915158748626709,
        0.99986374378204346,
        1
      ],
      "min": [
        -0.99999511241912842,
        -0.99849849939346313,
        -0.99958252906799316,
        -1
      ],
      "type": "VEC4"
    },
    {
      "bufferView": 1,
      "componentType": 5126,
      "count": 9566,
      "max": [
        0.9926760196685791,
        0.99658197164535522
      ],
      "min": [
        0.0052260002121329308,
        0.0068359998986124992
      ],
      "type": "VEC2"
    },
    {
      "bufferView": 0,
      "componentType": 5125,
      "count": 9708,
      "max": [
        9565
      ],
      "min": [
        0
      ],
      "type": "SCALAR"
    },
    {
      "bufferView": 2,
      "byteOffset": 229584,
      "componentType": 5126,
      "count": 690,
      "max": [
        4.7287673950195312,
        -8.6373128890991211,
        18.640766143798828
      ],
      "min": [
        -4.7287745475769043,
        -12.765665054321289,
        11.633591651916504
      ],
      "type": "VEC3"
    },
    {
      "bufferView": 2,
      "byteOffset": 237864,
      "componentType": 5126,
      "count": 690,
      "max": [
        0.92519068717956543,
        -0.29457566142082214,
        0.90898424386978149
      ],
      "min": [
        -0.92518991231918335,
        -0.99911105632781982,
        -0.79223954677581787
      ],
      "type": "VEC3"
    },
    {
      "bufferView": 3,
      "byteOffset": 153056,
      "componentType": 5126,
      "count": 690,
      "max": [
        0.99999946355819702,
        0.93824118375778198,
        0.31403690576553345,
        1
      ],
      "min": [
        0.34596803784370422,
        -0.93764501810073853,
        -0.2755790650844574,
        1
      ],
      "type": "VEC4"
    },
    {
      "bufferView": 1,
      "byteOffset": 76528,
      "componentType": 5126,
      "count": 690,
      "max": [
        -0.097290001809597015,
        0.98072797060012817
      ],
      "min": [
        -0.89599597454071045,
        0.019043000414967537
      ],
      "type": "VEC2"
    },
    {
      "bufferView": 0,
      "byteOffset": 38832,
      "componentType": 5125,
      "count": 696,
      "max": [
        689
      ],
      "min": [
        0
      ],
      "type": "SCALAR"
    },
    {
      "bufferView": 2,
      "byteOffset": 246144,
      "componentType": 5126,
      "count": 4266,
      "max": [
        6.3925681114196777,
        1.9826160669326782,
        13.680403709411621
      ],
      "min": [
        -6.3925690650939941,
        -10.89012336730957,
        4.1748142242431641
      ],
      "type": "VEC3"
    },
    {
      "bufferView": 2,
      "byteOffset": 297336,
      "componentType": 5126,
      "count": 4266,
      "max": [
        0.9989769458770752,
        0.99980568885803223,
        0.99995321035385132
      ],
      "min": [
        -0.99897676706314087,
        -0.99713796377182007,
        -0.99622869491577148
      ],
      "type": "VEC3"
    },
    {
      "bufferView": 3,
      "byteOffset": 164096,
      "componentType": 5126,
      "count": 4266,
      "max": [
        0.99999690055847168,
        0.99970859289169312,
        0.9978863000869751,
        1
      ],
      "min": [
        -0.99999982118606567,
        -0.99970859289169312,
        -0.99788659811019897,
        -1
      ],
      "type": "VEC4"
    },
    {
      "bufferView": 1,
      "byteOffset": 82048,
      "componentType": 5126,
      "count": 4266,
      "max": [
        0.98193401098251343,
        -0.15429699420928955
      ],
      "min": [
        0.013617999851703644,
        -0.98339802026748657
      ],
      "type": "VEC2"
    },
    {
      "bufferView": 0,
      "byteOffset": 41616,
      "componentType": 5125,
      "count": 4398,
      "max": [
        4265
      ],
      "min": [
        0
      ],
      "type": "SCALAR"
    },
    {
      "bufferView": 4,
      "componentType": 5126,
      "count": 1,
      "max": [
        1,
        0,
        0,
        0,
        0,
        1,
        0,
        0,
        0,
        0,
        1,
        0,
        0,
        0,
        0,
        1
      ],
      "min": [
        1,
        0,
        0,
        0,
        0,
        1,
        0,
        0,
        0,
        0,
        1,
        0,
        0,
        0,
        0,
        1
      ],
      "type": "MAT4"
    }
  ],
  "asset": {
    "generator": "Sketchfab (OSG glTF plugin)",
    "version": "2.0"
  },
  "bufferViews": [
    {
      "buffer": 0,
      "byteLength": 59208,
      "byteOffset": 0,
      "name": "floatBufferViews",
      "target": 34963
    },
    {
      "buffer": 0,
      "byteLength": 116176,
      "byteOffset": 59208,
      "byteStride": 8,
      "name": "floatBufferViews",
      "target": 34962
    },
    {
      "buffer": 0,
      "byteLength": 348528,
      "byteOffset": 175384,
      "byteStride": 12,
      "name": "floatBufferViews",
      "target": 34962
    },
    {
      "buffer": 0,
      "byteLength": 232352,
      "byteOffset": 523912,
      "byteStride": 16,
      "name": "floatBufferViews",
      "target": 34962
    },
    {
      "buffer": 0,
      "byteLength": 64,
      "byteOffset": 756264,
      "byteStride": 64,
      "name": "floatBufferViews"
    }
  ],
  "buffers": [
    {
      "byteLength": 756328,
      "uri": "scene.bin"
    }
  ],
  "extensionsRequired": [
    "KHR_materials_pbrSpecularGlossiness"
  ],
  "extensionsUsed": [
    "KHR_materials_pbrSpecularGlossiness"
  ],
  "images": [
    {
      "uri": "textures/Face_diffuse.png"
    },
    {
      "uri": "textures/Face_normal.png"
    },
    {
      "uri": "textures/Face_specularGlossiness.png"
    },
    {
      "uri": "textures/Body_diffuse.png"
    },
    {
      "uri": "textures/Body_normal.png"
    },
    {
      "uri": "textures/Body_specularGlossiness.png"
    },
    {
      "uri": "textures/Collar_diffuse.png"
    },
    {
      "uri": "textures/Collar_normal.png"
    },
    {
      "uri": "textures/Collar_specularGlossiness.png"
    }
  ],
  "materials": [
    {
      "doubleSided": true,
      "emissiveFactor": [
        0,
        0,
        0
      ],
      "extensions": {
        "KHR_materials_pbrSpecularGlossiness": {
          "diffuseFactor": [
            1,
            1,
            1,
            1
          ],
          "diffuseTexture": {
            "index": 3,
            "texCoord": 0
          },
          "glossinessFactor": 0.1070286404,
          "specularFactor": [
            0,
            0,
            0
          ],
          "specularGlossinessTexture": {
            "index": 5,
            "texCoord": 0
          }
        }
      },
      "name": "Body",
      "normalTexture": {
        "index": 4,
        "scale": 1,
        "texCoord": 0
      }
    },
    {
      "doubleSided": true,
      "emissiveFactor": [
        0,
        0,
        0
      ],
      "extensions": {
        "KHR_materials_pbrSpecularGlossiness": {
          "diffuseFactor": [
            1,
            1,
            1,
            1
          ],
          "diffuseTexture": {
            "index": 0,
            "texCoord": 0
          },
          "glossinessFactor": 0.1070286404,
          "specularFactor": [
            0,
            0,
            0
          ],
          "specularGlossinessTexture": {
            "index": 2,
            "texCoord": 0
          }
        }
      },
      "name": "Face",
      "normalTexture": {
        "index": 1,
        "scale": 1,
        "texCoord": 0
      }
    },
    {
      "doubleSided": true,
      "emissiveFactor": [
        0,
        0,
        0
      ],
      "extensions": {
        "KHR_materials_pbrSpecularGlossiness": {
          "diffuseFactor": [
            1,
            1,
            1,
            1
          ],
          "diffuseTexture": {
            "index": 6,
            "texCoord": 0
          },
          "glossinessFactor": 0.1070286404,
          "specularFactor": [
            0,
            0,
            0
          ],
          "specularGlossinessTexture": {
            "index": 8,
            "texCoord": 0
          }
        }
      },
      "name": "Collar",
      "normalTexture": {
        "index": 7,
        "scale": 1,
        "texCoord": 0
      }
    }
  ],
  "meshes": [
    {
      "primitives": [
        {
          "attributes": {
            "NORMAL": 1,
            "POSITION": 0,
            "TANGENT": 2,
            "TEXCOORD_0": 3
          },
          "indices": 4,
          "material": 0,
          "mode": 4
        }
      ]
    },
    {
      "primitives": [
        {
          "attributes": {
            "NORMAL": 6,
            "POSITION": 5,
            "TANGENT": 7,
            "TEXCOORD_0": 8
          },
          "indices": 9,
          "material": 1,
          "mode": 4
        }
      ]
    },
    {
      "primitives": [
        {
          "attributes": {
            "NORMAL": 11,
            "POSITION": 10,
            "TANGENT": 12,
            "TEXCOORD_0": 13
          },
          "indices": 14,
          "material": 2,
          "mode": 4
        }
      ]
    }
  ],
  "nodes": [
    {
      "children": [
        1
      ],
      "name": "RootNode (gltf orientation matrix)",
      "rotation": [
        -0.70710678118654746,
        -0,
        -0,
        0.70710678118654757
      ]
    },
    {
      "children": [
        2
      ],
      "name": "RootNode (model correction matrix)"
    },
    {
      "children": [
        3
      ],
      "matrix": [
        1,
        0,
        0,
        0,
        0,
        0,
        1,
        0,
        0,
        -1,
        0,
        0,
        0,
        0,
        0,
        1
      ],
      "name": "Eevee.FBX"
    },
    {
      "children": [
        4
      ],
      "name": "RootNode"
    },
    {
      "children": [
        5,
        6
      ],
      "name": ""
    },
    {
      "name": "_rootJoint"
    },
    {
      "children": [
        10
      ],
      "matrix": [
        1,
        0,
        1.7991059579794391e-32,
        0,
        1.7991059579794391e-32,
        6.123233995736766e-17,
        -1,
        0,
        -1.1016346763832262e-48,
        1,
        6.123233995736766e-17,
        0,
        0,
        0,
        0,
        1
      ],
      "name": ""
    },
    {
      "mesh": 0,
      "name": ""
    },
    {
      "mesh": 1,
      "name": ""
    },
    {
      "mesh": 2,
      "name": ""
    },
    {
      "children": [
        7,
        8,
        9
      ],
      "name": "Geode"
    }
  ],
  "samplers": [
    {
      "magFilter": 9729,
      "minFilter": 9987,
      "wrapS": 10497,
      "wrapT": 10497
    }
  ],
  "scene": 0,
  "scenes": [
    {
      "name": "OSG_Scene",
      "nodes": [
        0
      ]
    }
  ],
  "skins": [
    {
      "inverseBindMatrices": 15,
      "joints": [
        5
      ],
      "skeleton": 5
    }
  ],
  "textures": [
    {
      "sampler": 0,
      "source": 0
    },
    {
      "sampler": 0,
      "source": 1
    },
    {
      "sampler": 0,
      "source": 2
    },
    {
      "sampler": 0,
      "source": 3
    },
    {
      "sampler": 0,
      "source": 4
    },
    {
      "sampler": 0,
      "source": 5
    },
    {
      "sampler": 0,
      "source": 6
    },
    {
      "sampler": 0,
      "source": 7
    },
    {
      "sampler": 0,
      "source": 8
    }
  ]
}

